{"title":"Dracula Untold (2014) CAM READNFO x264 AC3-CPG","uid":11199887,"size":868069716,"categoryP":"video","categoryS":"movies","magnet":"?xt=urn:btih:cb2e9ba1268b82ecd90fbafef05c23b3be76bb08&amp;dn=Dracula+Untold+%282014%29+CAM+READNFO+x264+AC3-CPG&amp;tr=udp%3A%2F%2Ftracker.openbittorrent.com%3A80&amp;tr=udp%3A%2F%2Fopen.demonii.com%3A1337&amp;tr=udp%3A%2F%2Ftracker.coppersurfer.tk%3A6969&amp;tr=udp%3A%2F%2Fexodus.desync.com%3A6969","seeders":19,"leechers":3,"uploader":"xxxlavalxxx","files":-1,"time":1413155901,"description":"[IMG]http://i.imgur.com/wfxMZes.jpg[/IMG]\n\n &lt;a href=&quot;\nhttp://www.imdb.com/title/tt0829150/&quot; rel=&quot;nofollow&quot; target=&quot;_NEW&quot;&gt;\nhttp://www.imdb.com/title/tt0829150/&lt;/a&gt;\n\n\nFacing threats to his kingdom and his family, Vlad Tepes makes a deal with dangerous supernatural forces - whilst trying to avoid succumbing to the darkness himself.\n\nDirector: Gary Shore\nWriters: Matt Sazama, Burk Sharpless\nStars: Luke Evans, Dominic Cooper, Sarah Gadon\nGenres: Action | Drama | Fantasy | Horror | War\nCountry: USA\nLanguage: English\n\n\n\nFormat                                   : MPEG-4\nFormat profile                           : Base Media\nCodec ID                                 : isom\nFile size                                : 808 MiB\nDuration                                 : 1h 24mn\nOverall bit rate mode                    : Variable\nOverall bit rate                         : 1 332 Kbps\nEncoded date                             : UTC 2014-10-12 19:17:47\nTagged date                              : UTC 2014-10-12 19:17:47\n\nVideo\nID                                       : 1\nFormat                                   : AVC\nFormat/Info                              : Advanced Video Codec\nFormat profile                           : &lt;a class=&quot;__cf_email__&quot; href=&quot;/cdn-cgi/l/email-protection&quot; data-cfemail=&quot;ade5c4cac5ede199839c&quot;&gt;[email&amp;#160;protected]&lt;/a&gt;&lt;script cf-hash='f9e31' type=&quot;text/javascript&quot;&gt;\n/* &lt;![CDATA[ */!function(){try{var t=&quot;currentScript&quot;in document?document.currentScript:function(){for(var t=document.getElementsByTagName(&quot;script&quot;),e=t.length;e--;)if(t[e].getAttribute(&quot;cf-hash&quot;))return t[e]}();if(t&amp;&amp;t.previousSibling){var e,r,n,i,c=t.previousSibling,a=c.getAttribute(&quot;data-cfemail&quot;);if(a){for(e=&quot;&quot;,r=parseInt(a.substr(0,2),16),n=2;a.length-n;n+=2)i=parseInt(a.substr(n,2),16)^r,e+=String.fromCharCode(i);e=document.createTextNode(e),c.parentNode.replaceChild(e,c)}}}catch(u){}}();/* ]]&gt; */&lt;/script&gt;\nFormat settings, CABAC                   : Yes\nFormat settings, ReFrames                : 3 frames\nCodec ID                                 : avc1\nCodec ID/Info                            : Advanced Video Coding\nDuration                                 : 1h 24mn\nBit rate mode                            : Variable\nBit rate                                 : 1 134 Kbps\nMaximum bit rate                         : 40.0 Mbps\nWidth                                    : 688 pixels\nHeight                                   : 288 pixels\nDisplay aspect ratio                     : 2.40:1\nFrame rate mode                          : Constant\nFrame rate                               : 59.940 fps\nColor space                              : YUV\nChroma subsampling                       : 4:2:0\nBit depth                                : 8 bits\nScan type                                : Progressive\nBits/(Pixel*Frame)                       : 0.096\nStream size                              : 688 MiB (85%)\nWriting library                          : x264 core 142 r2431 ac76440\nEncoding settings                        : cabac=1 / ref=4 / deblock=1:-1:-1 / analyse=0x3:0x113 / me=umh / subme=9 / psy=1 / psy_rd=1.00:0.15 / mixed_ref=1 / me_range=18 / chroma_me=1 / trellis=2 / 8x8dct=1 / cqm=0 / deadzone=21,11 / fast_pskip=0 / chroma_qp_offset=-3 / threads=16 / lookahead_threads=1 / sliced_threads=0 / slices=4 / nr=0 / decimate=1 / interlaced=0 / bluray_compat=0 / constrained_intra=0 / bframes=3 / b_pyramid=1 / b_adapt=2 / b_bias=0 / direct=1 / weightb=1 / open_gop=0 / weightp=0 / keyint=58 / keyint_min=4 / scenecut=40 / intra_refresh=0 / rc_lookahead=40 / rc=crf / mbtree=1 / crf=21.0 / qcomp=0.60 / qpmin=10 / qpmax=51 / qpstep=4 / vbv_maxrate=40000 / vbv_bufsize=30000 / crf_max=0.0 / nal_hrd=vbr / filler=0 / ip_ratio=1.40 / aq=1:1.00\nEncoded date                             : UTC 2014-10-12 18:54:20\nTagged date                              : UTC 2014-10-12 19:18:12\nColor primaries                          : BT.709-5, BT.1361, IEC 61966-2-4, SMPTE RP177\nTransfer characteristics                 : BT.709-5, BT.1361\nMatrix coefficients                      : BT.709-5, BT.1361, IEC 61966-2-4 709, SMPTE RP177\n\nAudio\nID                                       : 2\nFormat                                   : AC-3\nFormat/Info                              : Audio Coding 3\nMode extension                           : CM (complete main)\nCodec ID                                 : ac-3\nDuration                                 : 1h 24mn\nBit rate mode                            : Constant\nBit rate                                 : 192 Kbps\nChannel(s)                               : 2 channels\nChannel positions                        : Front: L R\nSampling rate                            : 48.0 KHz\nBit depth                                : 16 bits\nCompression mode                         : Lossy\nStream size                              : 116 MiB (14%)\nEncoded date                             : UTC 2014-10-12 19:17:53\nTagged date                              : UTC 2014-10-12 19:18:12\n\n\n\nscreens\n &lt;a href=&quot;\nhttp://i.imgur.com/YJDmnS2.jpg&quot; rel=&quot;nofollow&quot; target=&quot;_NEW&quot;&gt;\nhttp://i.imgur.com/YJDmnS2.jpg&lt;/a&gt; &lt;a href=&quot;\nhttp://i.imgur.com/aDTaXux.jpg&quot; rel=&quot;nofollow&quot; target=&quot;_NEW&quot;&gt;\nhttp://i.imgur.com/aDTaXux.jpg&lt;/a&gt; &lt;a href=&quot;\nhttp://i.imgur.com/tKM4vdy.jpg&quot; rel=&quot;nofollow&quot; target=&quot;_NEW&quot;&gt;\nhttp://i.imgur.com/tKM4vdy.jpg&lt;/a&gt; &lt;a href=&quot;\nhttp://i.imgur.com/mtrm7EJ.jpg&quot; rel=&quot;nofollow&quot; target=&quot;_NEW&quot;&gt;\nhttp://i.imgur.com/mtrm7EJ.jpg&lt;/a&gt; &lt;a href=&quot;\nhttp://i.imgur.com/IqJdyOW.jpg&quot; rel=&quot;nofollow&quot; target=&quot;_NEW&quot;&gt;\nhttp://i.imgur.com/IqJdyOW.jpg&lt;/a&gt; &lt;a href=&quot;\nhttp://i.imgur.com/TUrbFLI.jpg&quot; rel=&quot;nofollow&quot; target=&quot;_NEW&quot;&gt;\nhttp://i.imgur.com/TUrbFLI.jpg&lt;/a&gt;","torrent":{"xt":"urn:btih:cb2e9ba1268b82ecd90fbafef05c23b3be76bb08","amp;dn":"Dracula+Untold+%282014%29+CAM+READNFO+x264+AC3-CPG","amp;tr":["udp%3A%2F%2Ftracker.openbittorrent.com%3A80","udp%3A%2F%2Fopen.demonii.com%3A1337","udp%3A%2F%2Ftracker.coppersurfer.tk%3A6969","udp%3A%2F%2Fexodus.desync.com%3A6969"],"infoHash":"cb2e9ba1268b82ecd90fbafef05c23b3be76bb08","infoHashBuffer":{"type":"Buffer","data":[203,46,155,161,38,139,130,236,217,15,186,254,240,92,35,179,190,118,187,8]},"announce":[],"urlList":[]}}